<?xml version="1.0" standalone="no"?>
<!DOCTYPE svg PUBLIC "-//W3C//DTD SVG 20010904//EN"
 "http://www.w3.org/TR/2001/REC-SVG-20010904/DTD/svg10.dtd">
<svg version="1.0" xmlns="http://www.w3.org/2000/svg"
 width="1242.000000pt" height="1242.000000pt" viewBox="0 0 1242.000000 1242.000000"
 preserveAspectRatio="xMidYMid meet">
<metadata>
Created by potrace 1.14, written by Peter Selinger 2001-2017
</metadata>
<g transform="translate(0.000000,1242.000000) scale(0.100000,-0.100000)"
fill="#000000" stroke="none">
<path d="M5980 10130 c-223 -19 -376 -68 -598 -189 -80 -44 -181 -127 -202
-166 -7 -13 -44 -48 -82 -76 -175 -130 -302 -340 -352 -579 -46 -224 -8 -675
76 -917 11 -31 10 -34 -27 -69 -48 -48 -81 -119 -100 -222 -14 -72 -14 -91 -2
-150 19 -89 59 -165 117 -222 54 -53 145 -100 193 -100 44 0 52 -8 75 -68 65
-170 217 -298 454 -381 98 -34 219 -61 275 -61 21 0 45 -4 53 -10 11 -7 9 -11
-12 -19 -36 -14 -158 -93 -202 -131 -20 -18 -47 -52 -58 -74 -12 -23 -36 -61
-55 -86 -77 -100 -182 -357 -228 -560 -43 -183 -63 -293 -84 -440 -30 -207
-30 -209 -66 -261 -19 -28 -35 -62 -35 -74 0 -13 21 -54 46 -91 34 -50 45 -73
41 -93 -10 -53 19 -76 127 -98 39 -8 73 -19 76 -23 3 -4 2 -46 -1 -92 -3 -45
-2 -91 3 -100 5 -10 26 -27 46 -37 l38 -19 23 -214 c14 -131 32 -246 47 -300
13 -48 24 -92 24 -98 0 -32 34 -79 63 -90 53 -18 170 -24 225 -11 62 15 79 33
91 98 6 27 17 65 25 84 9 19 34 115 56 214 75 334 139 553 160 540 20 -12 97
-279 155 -540 14 -66 35 -147 46 -180 11 -33 26 -81 34 -107 21 -71 31 -85 80
-104 36 -13 64 -16 135 -11 49 3 102 12 117 19 59 28 77 112 124 581 l11 118
37 19 c62 31 65 40 55 136 -5 47 -7 89 -4 93 3 5 32 14 65 21 33 6 77 19 98
27 34 15 37 19 37 58 0 34 9 56 46 111 53 79 54 106 6 172 -30 42 -31 49 -68
297 -18 125 -56 314 -86 425 -11 41 -26 100 -35 130 -44 166 -106 304 -182
405 -21 28 -45 64 -54 81 -23 44 -92 104 -191 164 -55 34 -82 56 -74 60 7 4
43 10 79 13 215 19 481 141 600 275 39 44 109 172 109 199 0 18 33 33 72 33
42 0 121 38 175 85 79 67 143 203 143 302 0 94 -52 246 -102 300 l-20 22 36
133 c60 224 69 294 63 458 -8 190 -44 412 -87 539 -29 87 -99 225 -156 306
-155 222 -453 417 -749 491 -218 54 -500 75 -745 54z m-345 -1123 c20 -62 22
-69 70 -172 46 -102 66 -126 175 -224 77 -70 95 -81 126 -81 36 0 36 0 20 25
-30 46 -12 49 32 5 35 -34 90 -41 116 -14 15 14 22 13 79 -15 71 -34 108 -41
87 -16 -10 12 -10 15 4 15 20 0 20 25 1 105 -8 33 -15 63 -15 68 0 21 23 1 63
-55 81 -113 107 -130 215 -143 l64 -7 -7 48 -7 49 54 -58 c41 -44 67 -63 117
-82 69 -27 106 -31 116 -15 3 5 -1 37 -9 71 -19 73 -19 79 -3 79 6 0 32 -37
57 -81 51 -91 58 -98 109 -116 50 -17 61 -16 61 7 0 29 16 24 37 -11 18 -32
97 -79 132 -79 25 0 55 -66 86 -186 19 -78 19 -138 0 -200 -22 -74 -72 -262
-85 -324 -53 -240 -119 -345 -281 -450 -57 -37 -185 -92 -254 -111 -112 -29
-201 -48 -275 -59 -47 -6 -91 -16 -97 -22 -18 -14 -16 -53 2 -68 8 -7 15 -15
15 -19 0 -4 -36 -25 -81 -46 -79 -39 -82 -41 -109 -102 -25 -55 -50 -82 -50
-53 0 5 -11 33 -25 63 -24 50 -31 56 -106 93 -90 43 -96 49 -79 69 6 8 10 26
8 42 -3 27 -6 28 -88 41 -134 20 -288 59 -387 97 -246 96 -361 221 -418 456
-52 214 -88 347 -117 437 -28 83 -30 101 -25 175 3 46 13 103 22 128 9 24 25
96 35 159 17 101 39 195 55 239 3 8 17 -5 38 -35 25 -38 51 -59 117 -96 188
-106 252 -127 280 -92 11 13 6 22 -33 60 -72 72 -82 100 -81 234 1 186 64 378
161 490 l38 44 12 -107 c6 -59 19 -131 28 -160z m-766 -926 c35 -64 140 -424
156 -533 9 -57 0 -60 -71 -26 -61 28 -134 101 -164 163 -49 99 -38 264 25 371
28 48 39 53 54 25z m2747 -34 c30 -57 44 -123 44 -209 0 -71 -5 -98 -24 -141
-30 -70 -84 -129 -151 -167 -68 -39 -95 -40 -95 -2 0 49 97 404 124 457 9 17
16 35 16 40 0 6 9 25 20 43 18 29 23 32 36 21 8 -7 22 -26 30 -42z m-1581
-1250 l80 -42 45 -87 c25 -48 50 -86 55 -85 6 2 30 42 55 89 44 85 46 87 116
121 40 20 75 33 78 30 11 -11 6 -184 -9 -338 -25 -249 -49 -387 -103 -584 -31
-118 -32 -143 -5 -301 12 -69 29 -177 38 -240 9 -63 20 -135 25 -160 5 -25 12
-64 15 -87 l7 -43 -219 0 c-121 0 -222 2 -225 5 -2 3 1 40 7 82 7 43 22 143
33 223 12 80 26 172 32 205 35 206 34 193 12 269 -31 105 -69 278 -87 391 -34
226 -58 596 -37 595 4 -1 43 -20 87 -43z m-258 -2723 c12 -3 24 -12 27 -20 4
-11 -6 -14 -45 -14 -47 0 -49 1 -39 20 11 21 21 23 57 14z m928 -14 c18 -20
17 -20 -33 -20 -54 0 -68 14 -29 30 33 13 42 12 62 -10z"/>
<path d="M5541 8249 c-136 -23 -271 -128 -338 -266 -38 -78 -38 -78 -38 -203
0 -123 1 -126 36 -201 140 -295 517 -367 757 -145 69 65 129 171 139 247 8 60
19 78 58 95 47 19 79 18 125 -6 35 -18 40 -25 51 -77 44 -203 199 -353 397
-383 236 -37 457 106 533 345 7 22 12 78 12 125 0 140 -39 234 -138 336 -260
265 -719 133 -800 -232 l-16 -74 -36 15 c-42 18 -88 19 -132 4 -18 -6 -35 -9
-38 -6 -3 4 -9 28 -14 54 -25 133 -130 269 -254 328 -106 51 -190 63 -304 44z
m162 -43 c99 -19 170 -56 237 -126 66 -67 103 -139 120 -237 23 -129 -21 -262
-120 -363 -271 -278 -738 -87 -740 303 0 55 17 147 27 147 3 0 18 -9 35 -21
25 -18 37 -20 94 -14 35 3 67 7 71 8 5 1 9 -8 11 -19 2 -15 13 -24 33 -28 25
-5 30 -10 27 -28 -2 -15 -11 -24 -25 -26 -26 -4 -30 -27 -12 -66 13 -29 48
-41 63 -22 6 8 21 17 34 21 23 7 23 6 5 -14 -18 -22 -29 -28 -18 -11 3 6 1 10
-4 10 -18 0 -12 -49 7 -58 29 -15 134 -22 156 -10 61 31 95 90 88 150 -3 29 0
38 17 47 17 9 22 8 31 -9 12 -22 88 -65 98 -56 8 9 -59 76 -76 76 -8 0 -25 11
-38 25 -14 15 -35 25 -54 26 -46 2 -48 3 -62 21 -31 39 -345 68 -418 38 -54
-22 -56 0 -5 69 43 58 116 116 182 143 22 9 116 31 155 37 3 1 40 -5 81 -13z
m1170 0 c124 -24 218 -83 282 -179 31 -46 38 -76 14 -61 -15 9 -109 13 -146 7
-19 -3 -33 -11 -33 -19 0 -16 -2 -16 -24 -8 -9 3 -13 10 -10 15 3 5 -1 9 -8 9
-16 0 -58 -29 -43 -30 6 0 3 -5 -5 -10 -10 -6 -11 -10 -2 -10 7 0 12 -12 11
-27 -1 -21 -3 -23 -6 -9 -3 11 -12 26 -20 35 -11 10 -12 16 -4 19 15 5 14 32
-2 32 -91 0 -269 -74 -339 -142 -51 -48 -39 -59 25 -23 61 34 73 32 81 -10 7
-35 30 -56 53 -48 7 2 9 11 6 20 -5 13 -3 13 15 4 11 -6 31 -11 44 -11 22 0
22 0 3 -19 -25 -24 -65 -37 -65 -21 0 6 5 8 10 5 6 -3 10 -1 10 4 0 13 -10 14
-29 2 -11 -7 -10 -12 8 -22 11 -8 21 -22 21 -31 0 -19 54 -38 110 -38 53 0
136 52 155 96 24 59 20 74 -20 74 -43 0 -46 20 -7 49 15 11 37 30 49 42 16 16
25 20 35 12 27 -21 94 -31 119 -17 46 26 57 19 65 -42 30 -248 -114 -454 -348
-499 -213 -40 -418 82 -492 295 -23 65 -21 202 3 268 64 175 193 271 403 301
3 1 40 -5 81 -13z m69 -271 c0 -5 -5 -10 -11 -12 -8 -1 -7 0 0 4 8 4 7 8 -2
15 -11 8 -11 9 -1 6 8 -2 14 -8 14 -13z m-1239 -49 c7 -17 -20 -30 -29 -14 -4
7 -3 8 4 4 7 -4 12 -1 12 8 0 20 6 20 13 2z m1149 -52 c-8 -14 -10 -14 -22 1
-11 13 -10 15 5 9 13 -5 16 -3 13 7 -3 8 -10 15 -16 15 -25 3 -27 5 -12 13 19
13 45 -22 32 -45z m38 52 c0 -3 -4 -8 -10 -11 -5 -3 -10 -1 -10 4 0 6 5 11 10
11 6 0 10 -2 10 -4z m-1220 -40 c0 -2 -7 -6 -15 -10 -8 -3 -15 -1 -15 4 0 6 7
10 15 10 8 0 15 -2 15 -4z m1128 -13 c-10 -2 -18 -9 -18 -15 0 -6 -3 -9 -6 -5
-10 10 6 27 24 26 15 -1 15 -2 0 -6z m-1177 -22 c-7 -5 -11 -13 -8 -18 10 -15
-10 -36 -28 -29 -15 5 -13 10 11 36 16 16 30 27 33 24 3 -3 -1 -9 -8 -13z
m1199 -1 c-8 -5 -15 -15 -15 -21 0 -7 -8 -13 -17 -15 -10 -1 -18 0 -18 3 0 8
44 42 55 43 6 0 3 -5 -5 -10z m-60 -19 c0 -6 -5 -13 -12 -17 -6 -4 -8 -3 -4 4
3 5 0 13 -6 15 -8 3 -6 6 5 6 9 1 17 -3 17 -8z m-1015 -31 c-10 -11 -22 -20
-26 -20 -5 0 -1 9 8 20 10 11 22 20 27 20 5 0 1 -9 -9 -20z m-59 -62 c-9 -12
-16 -19 -16 -15 0 11 24 47 28 42 2 -2 -3 -14 -12 -27z"/>
<path d="M5590 7780 c-9 -6 -10 -10 -3 -10 6 0 15 5 18 10 8 12 4 12 -15 0z"/>
<path d="M6225 7396 c-33 -6 -102 -11 -152 -10 -51 0 -93 -3 -93 -7 0 -3 11
-11 25 -17 35 -16 126 -14 205 3 36 8 102 14 148 15 45 0 82 4 82 9 0 23 -112
27 -215 7z"/>
</g>
</svg>
